<?xml version="1.0" ?><svg id="Filled" viewBox="0 0 512 512" xmlns="http://www.w3.org/2000/svg"><rect height="288" rx="32" ry="32" style="fill:#f7cc38" width="384" x="24" y="88"/><path d="M24,392a32,32,0,0,0,32,32H376a32,32,0,0,0,32-32V168a32,32,0,0,0-32-32H200V72a32,32,0,0,0-32-32H56A32,32,0,0,0,24,72Z" style="fill:#fbe36a"/><polygon points="440 472 376 432 312 472 320 392 264 344 344 328 376 264 408 328 488 344 432 392 440 472" style="fill:#f79539"/><path d="M56,432H307.96l-3.92,39.2a8,8,0,0,0,12.2,7.58L376,441.434l59.76,37.35a8,8,0,0,0,12.2-7.58l-7.585-75.847,52.832-45.283a8,8,0,0,0-3.638-13.919L416,321.442V119.5a40.045,40.045,0,0,0-40-40H208V72a40.045,40.045,0,0,0-40-40H56A40.045,40.045,0,0,0,16,72V392A40.045,40.045,0,0,0,56,432Zm370.793-46.074a8,8,0,0,0-2.753,6.87l6.378,63.781L380.24,425.216a8,8,0,0,0-8.48,0l-50.178,31.361L327.96,392.8a8,8,0,0,0-2.753-6.87l-43.522-37.3,63.884-12.777a8,8,0,0,0,5.586-4.267L376,281.889l24.845,49.689a8,8,0,0,0,5.586,4.267l63.884,12.777ZM376,95.5a24.028,24.028,0,0,1,24,24v16.522A39.788,39.788,0,0,0,376,128H208V95.5ZM32,72A24.027,24.027,0,0,1,56,48H168a24.027,24.027,0,0,1,24,24v64a8,8,0,0,0,8,8H376a24.027,24.027,0,0,1,24,24V294.112l-16.845-33.69a8,8,0,0,0-14.31,0l-30.251,60.5-76.163,15.232a8,8,0,0,0-3.638,13.919l52.832,45.283L309.56,416H56a24.027,24.027,0,0,1-24-24Z"/></svg>