<?xml version="1.0" ?><svg id="Filled" viewBox="0 0 512 512" xmlns="http://www.w3.org/2000/svg"><rect height="288" rx="32" ry="32" style="fill:#f7cc38" width="384" x="24" y="88"/><path d="M24,392a32,32,0,0,0,32,32H376a32,32,0,0,0,32-32V168a32,32,0,0,0-32-32H200V72a32,32,0,0,0-32-32H56A32,32,0,0,0,24,72Z" style="fill:#fbe36a"/><circle cx="384" cy="368" r="104" style="fill:#75ab7d"/><path d="M416,260.666V119.5a40.045,40.045,0,0,0-40-40H208V72a40.045,40.045,0,0,0-40-40H56A40.045,40.045,0,0,0,16,72V392a40.045,40.045,0,0,0,40,40H292.141A111.981,111.981,0,1,0,416,260.666ZM376,95.5a24.028,24.028,0,0,1,24,24v16.522A39.788,39.788,0,0,0,376,128H208V95.5ZM56,416a24.028,24.028,0,0,1-24-24V72A24.028,24.028,0,0,1,56,48H168a24.028,24.028,0,0,1,24,24v64a8,8,0,0,0,8,8H376a24.028,24.028,0,0,1,24,24v89.148A112,112,0,0,0,272,368a111.334,111.334,0,0,0,10.821,48Zm328,48a96,96,0,1,1,96-96A96.108,96.108,0,0,1,384,464Z"/><path d="M436.438,321.344a8,8,0,0,0-11.094,2.218l-58.587,87.881-25.1-25.1a8,8,0,0,0-11.314,11.314l32,32A8,8,0,0,0,368,432q.394,0,.789-.039a8,8,0,0,0,5.868-3.523l64-96A8,8,0,0,0,436.438,321.344Z"/></svg>