<?xml version="1.0" ?><svg id="Filled" viewBox="0 0 512 512" xmlns="http://www.w3.org/2000/svg"><rect height="320" rx="32" ry="32" style="fill:#f7cc38" width="464" x="24" y="96"/><path d="M456,144H232V80a32,32,0,0,0-32-32H56A32,32,0,0,0,24,80V432a32,32,0,0,0,32,32H456a32,32,0,0,0,32-32V176A32,32,0,0,0,456,144Z" style="fill:#fbe36a"/><path d="M456,88H240V80a40.045,40.045,0,0,0-40-40H56A40.045,40.045,0,0,0,16,80V432a40.045,40.045,0,0,0,40,40H456a40.045,40.045,0,0,0,40-40V128A40.045,40.045,0,0,0,456,88Zm0,16a24.028,24.028,0,0,1,24,24v16.022A39.788,39.788,0,0,0,456,136H240V104Zm24,328a24.028,24.028,0,0,1-24,24H56a24.028,24.028,0,0,1-24-24V80A24.028,24.028,0,0,1,56,56H200a24.028,24.028,0,0,1,24,24v64a8,8,0,0,0,8,8H456a24.028,24.028,0,0,1,24,24Z"/></svg>