<?xml version="1.0" ?><svg id="Filled" viewBox="0 0 512 512" xmlns="http://www.w3.org/2000/svg"><rect height="288" rx="32" ry="32" style="fill:#f7cc38" width="384" x="24" y="88"/><path d="M24,392a32,32,0,0,0,32,32H376a32,32,0,0,0,32-32V168a32,32,0,0,0-32-32H200V72a32,32,0,0,0-32-32H56A32,32,0,0,0,24,72Z" style="fill:#fbe36a"/><circle cx="384" cy="368" r="104" style="fill:#6ed2f0"/><path d="M416,260.666V119.5a40.045,40.045,0,0,0-40-40H208V72a40.045,40.045,0,0,0-40-40H56A40.045,40.045,0,0,0,16,72V392a40.045,40.045,0,0,0,40,40H292.141A111.981,111.981,0,1,0,416,260.666ZM376,95.5a24.028,24.028,0,0,1,24,24v16.522A39.788,39.788,0,0,0,376,128H208V95.5ZM56,416a24.027,24.027,0,0,1-24-24V72A24.027,24.027,0,0,1,56,48H168a24.027,24.027,0,0,1,24,24v64a8,8,0,0,0,8,8H376a24.028,24.028,0,0,1,24,24v89.148A112,112,0,0,0,272,368a111.334,111.334,0,0,0,10.821,48Zm328,48a96,96,0,1,1,96-96A96.108,96.108,0,0,1,384,464Z"/><path d="M443.955,331.562l-4.92,7.38a64,64,0,0,0-118.262-6.375,8,8,0,0,0,14.454,6.866,48,48,0,0,1,88.25,3.529l-8.428-5.618a8,8,0,1,0-8.875,13.312l23.954,15.969.026.018.02.013.027.016a8.149,8.149,0,0,0,.917.517l.2.095a8.027,8.027,0,0,0,.977.372c.053.016.106.026.159.041a7.941,7.941,0,0,0,.848.186c.1.017.2.033.3.045a7.74,7.74,0,0,0,.945.068c.021,0,.042,0,.064,0s.039,0,.059,0a7.928,7.928,0,0,0,.848-.051c.08-.009.158-.025.237-.036.225-.032.447-.071.666-.121.085-.02.169-.043.254-.066.212-.056.421-.121.625-.194.084-.029.168-.059.251-.091q.32-.127.625-.281c.067-.033.136-.062.2-.1a8.1,8.1,0,0,0,.743-.449c.078-.053.151-.114.228-.17.163-.12.322-.243.476-.375.089-.077.176-.157.262-.238.146-.137.285-.28.42-.427.068-.074.138-.146.2-.223a8.144,8.144,0,0,0,.559-.733l.006-.007,16-24a8,8,0,0,0-13.313-8.876Z"/><path d="M443.433,392.773a8,8,0,0,0-10.66,3.794,48,48,0,0,1-88.25-3.529l8.428,5.618a8,8,0,1,0,8.875-13.312l-23.954-15.969-.026-.018-.02-.013c-.033-.023-.069-.04-.1-.061-.187-.121-.378-.238-.575-.343-.075-.04-.151-.072-.226-.109-.159-.079-.319-.157-.484-.226-.106-.043-.214-.078-.321-.117-.137-.05-.273-.1-.413-.144s-.274-.073-.411-.106c-.115-.028-.228-.06-.344-.083-.174-.035-.348-.057-.523-.08-.084-.011-.166-.027-.252-.035-.23-.023-.46-.033-.69-.035-.032,0-.064,0-.1,0h-.009c-.27,0-.54.014-.807.041-.041,0-.08.014-.12.018-.216.026-.432.056-.646.1-.156.031-.308.075-.461.115-.1.026-.2.046-.292.075-.145.045-.285.1-.427.152-.1.038-.208.071-.309.113s-.227.105-.34.158-.25.115-.372.18c-.082.044-.158.094-.238.141-.147.085-.294.169-.436.264-.051.035-.1.074-.149.11-.162.114-.323.229-.477.356-.03.025-.057.053-.087.078-.166.141-.33.286-.486.442-.026.027-.049.056-.075.083-.16.164-.316.333-.462.513q-.243.3-.457.616l-.007.008-16,24a8,8,0,1,0,13.313,8.876l4.92-7.38a64,64,0,0,0,118.262,6.375A8,8,0,0,0,443.433,392.773Z"/></svg>